<svg class="marks" width="1458" height="636" viewBox="0 0 1458 636" version="1.1" xmlns="http://www.w3.org/2000/svg" xmlns:xlink="http://www.w3.org/1999/xlink"><style>* { fill: none; } tspan { fill: inherit; } path { stroke-miterlimit: 10; }</style><rect width="1458" height="636" style="fill: white;"></rect><g transform="translate(59,59)"><g class="mark-group role-frame root" role="graphics-object" aria-roledescription="group mark container"><g transform="translate(0,0)"><path class="background" aria-hidden="true" d="M0,0h0v0h0Z"></path><g><g class="mark-group role-scope concat_0_group" role="graphics-object" aria-roledescription="group mark container"><g transform="translate(0,0)"><path class="background" aria-hidden="true" d="M0.5,0.5h650v480h-650Z" style="stroke: #ddd;"></path><g><g class="mark-group role-axis" role="graphics-symbol" aria-roledescription="axis" aria-label="X-axis for a linear scale with values from 0 to 200"><g transform="translate(0.5,480.5)"><path class="background" aria-hidden="true" d="M0,0h0v0h0Z" style="pointer-events: none;"></path><g><g class="mark-rule role-axis-grid" style="pointer-events: none;"><line transform="translate(0,-480)" x2="0" y2="480" style="stroke: #ddd; stroke-width: 1; opacity: 1;"></line><line transform="translate(33,-480)" x2="0" y2="480" style="stroke: #ddd; stroke-width: 1; opacity: 1;"></line><line transform="translate(65,-480)" x2="0" y2="480" style="stroke: #ddd; stroke-width: 1; opacity: 1;"></line><line transform="translate(98,-480)" x2="0" y2="480" style="stroke: #ddd; stroke-width: 1; opacity: 1;"></line><line transform="translate(130,-480)" x2="0" y2="480" style="stroke: #ddd; stroke-width: 1; opacity: 1;"></line><line transform="translate(163,-480)" x2="0" y2="480" style="stroke: #ddd; stroke-width: 1; opacity: 1;"></line><line transform="translate(195,-480)" x2="0" y2="480" style="stroke: #ddd; stroke-width: 1; opacity: 1;"></line><line transform="translate(227,-480)" x2="0" y2="480" style="stroke: #ddd; stroke-width: 1; opacity: 1;"></line><line transform="translate(260,-480)" x2="0" y2="480" style="stroke: #ddd; stroke-width: 1; opacity: 1;"></line><line transform="translate(293,-480)" x2="0" y2="480" style="stroke: #ddd; stroke-width: 1; opacity: 1;"></line><line transform="translate(325,-480)" x2="0" y2="480" style="stroke: #ddd; stroke-width: 1; opacity: 1;"></line><line transform="translate(358,-480)" x2="0" y2="480" style="stroke: #ddd; stroke-width: 1; opacity: 1;"></line><line transform="translate(390,-480)" x2="0" y2="480" style="stroke: #ddd; stroke-width: 1; opacity: 1;"></line><line transform="translate(423,-480)" x2="0" y2="480" style="stroke: #ddd; stroke-width: 1; opacity: 1;"></line><line transform="translate(455,-480)" x2="0" y2="480" style="stroke: #ddd; stroke-width: 1; opacity: 1;"></line><line transform="translate(488,-480)" x2="0" y2="480" style="stroke: #ddd; stroke-width: 1; opacity: 1;"></line><line transform="translate(520,-480)" x2="0" y2="480" style="stroke: #ddd; stroke-width: 1; opacity: 1;"></line><line transform="translate(553,-480)" x2="0" y2="480" style="stroke: #ddd; stroke-width: 1; opacity: 1;"></line><line transform="translate(585,-480)" x2="0" y2="480" style="stroke: #ddd; stroke-width: 1; opacity: 1;"></line><line transform="translate(618,-480)" x2="0" y2="480" style="stroke: #ddd; stroke-width: 1; opacity: 1;"></line><line transform="translate(650,-480)" x2="0" y2="480" style="stroke: #ddd; stroke-width: 1; opacity: 1;"></line></g></g><path class="foreground" aria-hidden="true" d="" style="pointer-events: none; display: none;"></path></g></g><g class="mark-group role-axis" role="graphics-symbol" aria-roledescription="axis" aria-label="Y-axis for a linear scale with values from 0.000 to 0.026"><g transform="translate(0.5,0.5)"><path class="background" aria-hidden="true" d="M0,0h0v0h0Z" style="pointer-events: none;"></path><g><g class="mark-rule role-axis-grid" style="pointer-events: none;"><line transform="translate(0,480)" x2="650" y2="0" style="stroke: #ddd; stroke-width: 1; opacity: 1;"></line><line transform="translate(0,443)" x2="650" y2="0" style="stroke: #ddd; stroke-width: 1; opacity: 1;"></line><line transform="translate(0,406)" x2="650" y2="0" style="stroke: #ddd; stroke-width: 1; opacity: 1;"></line><line transform="translate(0,369)" x2="650" y2="0" style="stroke: #ddd; stroke-width: 1; opacity: 1;"></line><line transform="translate(0,332)" x2="650" y2="0" style="stroke: #ddd; stroke-width: 1; opacity: 1;"></line><line transform="translate(0,295)" x2="650" y2="0" style="stroke: #ddd; stroke-width: 1; opacity: 1;"></line><line transform="translate(0,258)" x2="650" y2="0" style="stroke: #ddd; stroke-width: 1; opacity: 1;"></line><line transform="translate(0,222)" x2="650" y2="0" style="stroke: #ddd; stroke-width: 1; opacity: 1;"></line><line transform="translate(0,185)" x2="650" y2="0" style="stroke: #ddd; stroke-width: 1; opacity: 1;"></line><line transform="translate(0,148)" x2="650" y2="0" style="stroke: #ddd; stroke-width: 1; opacity: 1;"></line><line transform="translate(0,111)" x2="650" y2="0" style="stroke: #ddd; stroke-width: 1; opacity: 1;"></line><line transform="translate(0,74)" x2="650" y2="0" style="stroke: #ddd; stroke-width: 1; opacity: 1;"></line><line transform="translate(0,37)" x2="650" y2="0" style="stroke: #ddd; stroke-width: 1; opacity: 1;"></line><line transform="translate(0,0)" x2="650" y2="0" style="stroke: #ddd; stroke-width: 1; opacity: 1;"></line></g></g><path class="foreground" aria-hidden="true" d="" style="pointer-events: none; display: none;"></path></g></g><g class="mark-group role-axis" role="graphics-symbol" aria-roledescription="axis" aria-label="X-axis titled 'Apache Score' for a linear scale with values from 0 to 200"><g transform="translate(0.5,480.5)"><path class="background" aria-hidden="true" d="M0,0h0v0h0Z" style="pointer-events: none;"></path><g><g class="mark-rule role-axis-tick" style="pointer-events: none;"><line transform="translate(0,0)" x2="0" y2="5" style="stroke: #888; stroke-width: 1; opacity: 1;"></line><line transform="translate(33,0)" x2="0" y2="5" style="stroke: #888; stroke-width: 1; opacity: 1;"></line><line transform="translate(65,0)" x2="0" y2="5" style="stroke: #888; stroke-width: 1; opacity: 1;"></line><line transform="translate(98,0)" x2="0" y2="5" style="stroke: #888; stroke-width: 1; opacity: 1;"></line><line transform="translate(130,0)" x2="0" y2="5" style="stroke: #888; stroke-width: 1; opacity: 1;"></line><line transform="translate(163,0)" x2="0" y2="5" style="stroke: #888; stroke-width: 1; opacity: 1;"></line><line transform="translate(195,0)" x2="0" y2="5" style="stroke: #888; stroke-width: 1; opacity: 1;"></line><line transform="translate(227,0)" x2="0" y2="5" style="stroke: #888; stroke-width: 1; opacity: 1;"></line><line transform="translate(260,0)" x2="0" y2="5" style="stroke: #888; stroke-width: 1; opacity: 1;"></line><line transform="translate(293,0)" x2="0" y2="5" style="stroke: #888; stroke-width: 1; opacity: 1;"></line><line transform="translate(325,0)" x2="0" y2="5" style="stroke: #888; stroke-width: 1; opacity: 1;"></line><line transform="translate(358,0)" x2="0" y2="5" style="stroke: #888; stroke-width: 1; opacity: 1;"></line><line transform="translate(390,0)" x2="0" y2="5" style="stroke: #888; stroke-width: 1; opacity: 1;"></line><line transform="translate(423,0)" x2="0" y2="5" style="stroke: #888; stroke-width: 1; opacity: 1;"></line><line transform="translate(455,0)" x2="0" y2="5" style="stroke: #888; stroke-width: 1; opacity: 1;"></line><line transform="translate(488,0)" x2="0" y2="5" style="stroke: #888; stroke-width: 1; opacity: 1;"></line><line transform="translate(520,0)" x2="0" y2="5" style="stroke: #888; stroke-width: 1; opacity: 1;"></line><line transform="translate(553,0)" x2="0" y2="5" style="stroke: #888; stroke-width: 1; opacity: 1;"></line><line transform="translate(585,0)" x2="0" y2="5" style="stroke: #888; stroke-width: 1; opacity: 1;"></line><line transform="translate(618,0)" x2="0" y2="5" style="stroke: #888; stroke-width: 1; opacity: 1;"></line><line transform="translate(650,0)" x2="0" y2="5" style="stroke: #888; stroke-width: 1; opacity: 1;"></line></g><g class="mark-text role-axis-label" style="pointer-events: none;"><text text-anchor="middle" transform="translate(0,15)" style="font-family: sans-serif; font-size: 10px; fill: #000; opacity: 1;">0</text><text text-anchor="middle" transform="translate(32.5,15)" style="font-family: sans-serif; font-size: 10px; fill: #000; opacity: 1;">10</text><text text-anchor="middle" transform="translate(65,15)" style="font-family: sans-serif; font-size: 10px; fill: #000; opacity: 1;">20</text><text text-anchor="middle" transform="translate(97.5,15)" style="font-family: sans-serif; font-size: 10px; fill: #000; opacity: 1;">30</text><text text-anchor="middle" transform="translate(130,15)" style="font-family: sans-serif; font-size: 10px; fill: #000; opacity: 1;">40</text><text text-anchor="middle" transform="translate(162.5,15)" style="font-family: sans-serif; font-size: 10px; fill: #000; opacity: 1;">50</text><text text-anchor="middle" transform="translate(195,15)" style="font-family: sans-serif; font-size: 10px; fill: #000; opacity: 1;">60</text><text text-anchor="middle" transform="translate(227.49999999999997,15)" style="font-family: sans-serif; font-size: 10px; fill: #000; opacity: 1;">70</text><text text-anchor="middle" transform="translate(260,15)" style="font-family: sans-serif; font-size: 10px; fill: #000; opacity: 1;">80</text><text text-anchor="middle" transform="translate(292.5,15)" style="font-family: sans-serif; font-size: 10px; fill: #000; opacity: 1;">90</text><text text-anchor="middle" transform="translate(325,15)" style="font-family: sans-serif; font-size: 10px; fill: #000; opacity: 1;">100</text><text text-anchor="middle" transform="translate(357.50000000000006,15)" style="font-family: sans-serif; font-size: 10px; fill: #000; opacity: 1;">110</text><text text-anchor="middle" transform="translate(390,15)" style="font-family: sans-serif; font-size: 10px; fill: #000; opacity: 1;">120</text><text text-anchor="middle" transform="translate(422.5,15)" style="font-family: sans-serif; font-size: 10px; fill: #000; opacity: 1;">130</text><text text-anchor="middle" transform="translate(454.99999999999994,15)" style="font-family: sans-serif; font-size: 10px; fill: #000; opacity: 1;">140</text><text text-anchor="middle" transform="translate(487.5,15)" style="font-family: sans-serif; font-size: 10px; fill: #000; opacity: 1;">150</text><text text-anchor="middle" transform="translate(520,15)" style="font-family: sans-serif; font-size: 10px; fill: #000; opacity: 1;">160</text><text text-anchor="middle" transform="translate(552.5,15)" style="font-family: sans-serif; font-size: 10px; fill: #000; opacity: 1;">170</text><text text-anchor="middle" transform="translate(585,15)" style="font-family: sans-serif; font-size: 10px; fill: #000; opacity: 1;">180</text><text text-anchor="middle" transform="translate(617.5,15)" style="font-family: sans-serif; font-size: 10px; fill: #000; opacity: 1;">190</text><text text-anchor="middle" transform="translate(650,15)" style="font-family: sans-serif; font-size: 10px; fill: #000; opacity: 1;">200</text></g><g class="mark-rule role-axis-domain" style="pointer-events: none;"><line transform="translate(0,0)" x2="650" y2="0" style="stroke: #888; stroke-width: 1; opacity: 1;"></line></g><g class="mark-text role-axis-title" style="pointer-events: none;"><text text-anchor="middle" transform="translate(325,34)" style="font-family: sans-serif; font-size: 16px; font-weight: bold; fill: #000; opacity: 1;">Apache Score</text></g></g><path class="foreground" aria-hidden="true" d="" style="pointer-events: none; display: none;"></path></g></g><g class="mark-group role-axis" role="graphics-symbol" aria-roledescription="axis" aria-label="Y-axis titled 'density' for a linear scale with values from 0.000 to 0.026"><g transform="translate(0.5,0.5)"><path class="background" aria-hidden="true" d="M0,0h0v0h0Z" style="pointer-events: none;"></path><g><g class="mark-rule role-axis-tick" style="pointer-events: none;"><line transform="translate(0,480)" x2="-5" y2="0" style="stroke: #888; stroke-width: 1; opacity: 1;"></line><line transform="translate(0,443)" x2="-5" y2="0" style="stroke: #888; stroke-width: 1; opacity: 1;"></line><line transform="translate(0,406)" x2="-5" y2="0" style="stroke: #888; stroke-width: 1; opacity: 1;"></line><line transform="translate(0,369)" x2="-5" y2="0" style="stroke: #888; stroke-width: 1; opacity: 1;"></line><line transform="translate(0,332)" x2="-5" y2="0" style="stroke: #888; stroke-width: 1; opacity: 1;"></line><line transform="translate(0,295)" x2="-5" y2="0" style="stroke: #888; stroke-width: 1; opacity: 1;"></line><line transform="translate(0,258)" x2="-5" y2="0" style="stroke: #888; stroke-width: 1; opacity: 1;"></line><line transform="translate(0,222)" x2="-5" y2="0" style="stroke: #888; stroke-width: 1; opacity: 1;"></line><line transform="translate(0,185)" x2="-5" y2="0" style="stroke: #888; stroke-width: 1; opacity: 1;"></line><line transform="translate(0,148)" x2="-5" y2="0" style="stroke: #888; stroke-width: 1; opacity: 1;"></line><line transform="translate(0,111)" x2="-5" y2="0" style="stroke: #888; stroke-width: 1; opacity: 1;"></line><line transform="translate(0,74)" x2="-5" y2="0" style="stroke: #888; stroke-width: 1; opacity: 1;"></line><line transform="translate(0,37)" x2="-5" y2="0" style="stroke: #888; stroke-width: 1; opacity: 1;"></line><line transform="translate(0,0)" x2="-5" y2="0" style="stroke: #888; stroke-width: 1; opacity: 1;"></line></g><g class="mark-text role-axis-label" style="pointer-events: none;"><text text-anchor="end" transform="translate(-7,483)" style="font-family: sans-serif; font-size: 10px; fill: #000; opacity: 1;">0.000</text><text text-anchor="end" transform="translate(-7,446.0769230769231)" style="font-family: sans-serif; font-size: 10px; fill: #000; opacity: 1;">0.002</text><text text-anchor="end" transform="translate(-7,409.15384615384613)" style="font-family: sans-serif; font-size: 10px; fill: #000; opacity: 1;">0.004</text><text text-anchor="end" transform="translate(-7,372.23076923076917)" style="font-family: sans-serif; font-size: 10px; fill: #000; opacity: 1;">0.006</text><text text-anchor="end" transform="translate(-7,335.3076923076923)" style="font-family: sans-serif; font-size: 10px; fill: #000; opacity: 1;">0.008</text><text text-anchor="end" transform="translate(-7,298.3846153846154)" style="font-family: sans-serif; font-size: 10px; fill: #000; opacity: 1;">0.010</text><text text-anchor="end" transform="translate(-7,261.46153846153845)" style="font-family: sans-serif; font-size: 10px; fill: #000; opacity: 1;">0.012</text><text text-anchor="end" transform="translate(-7,224.5384615384615)" style="font-family: sans-serif; font-size: 10px; fill: #000; opacity: 1;">0.014</text><text text-anchor="end" transform="translate(-7,187.61538461538458)" style="font-family: sans-serif; font-size: 10px; fill: #000; opacity: 1;">0.016</text><text text-anchor="end" transform="translate(-7,150.6923076923077)" style="font-family: sans-serif; font-size: 10px; fill: #000; opacity: 1;">0.018</text><text text-anchor="end" transform="translate(-7,113.76923076923075)" style="font-family: sans-serif; font-size: 10px; fill: #000; opacity: 1;">0.020</text><text text-anchor="end" transform="translate(-7,76.84615384615385)" style="font-family: sans-serif; font-size: 10px; fill: #000; opacity: 1;">0.022</text><text text-anchor="end" transform="translate(-7,39.9230769230769)" style="font-family: sans-serif; font-size: 10px; fill: #000; opacity: 1;">0.024</text><text text-anchor="end" transform="translate(-7,3)" style="font-family: sans-serif; font-size: 10px; fill: #000; opacity: 1;">0.026</text></g><g class="mark-rule role-axis-domain" style="pointer-events: none;"><line transform="translate(0,480)" x2="0" y2="-480" style="stroke: #888; stroke-width: 1; opacity: 1;"></line></g><g class="mark-text role-axis-title" style="pointer-events: none;"><text text-anchor="middle" transform="translate(-36.0244140625,240) rotate(-90) translate(0,-3)" style="font-family: sans-serif; font-size: 16px; font-weight: bold; fill: #000; opacity: 1;">density</text></g></g><path class="foreground" aria-hidden="true" d="" style="pointer-events: none; display: none;"></path></g></g><g class="mark-group role-scope concat_0_pathgroup" role="graphics-object" aria-roledescription="group mark container"><g transform="translate(0,0)"><path class="background" aria-hidden="true" d="M0,0h650v480h-650Z"></path><g><g class="mark-area role-mark concat_0_marks" role="graphics-symbol" aria-roledescription="area mark container"><path d="M0,444.60914074292094L6.5,446.0420180255035L13,449.8086387583431L19.5,450.09706206867304L26,443.3901671434118L32.5,428.531512342025L39,405.457023144206L45.50000000000001,375.04621541747616L52,338.56375218356334L58.5,296.8586397381148L65,251.28391514946057L71.5,204.80422772035357L78,160.80628112818576L84.5,121.4158382419854L91.00000000000001,87.44249594149525L97.5,59.39590673400224L104,38.290192615272915L110.50000000000001,25.075091821938162L117,19.090398700630207L123.5,18.00691993167492L130,19.68700492197172L136.5,22.969905874466647L143,26.880308469491254L149.5,31.200329914966947L156,37.477171519249396L162.5,47.17580643340709L169,59.36613915499137L175.5,71.61598621703419L182.00000000000003,82.52856736090746L188.5,92.94647180879365L195,104.54723960273583L201.5,117.18443227455795L208,128.83054627760802L214.5,138.2769628663332L221.00000000000003,146.30599344713482L227.49999999999997,154.2459690851701L234,162.33001785261845L240.5,169.44628701550474L247,174.26183269757723L253.5,176.52293952902755L260,177.24371224065453L266.5,177.73228409456118L273,178.81673915762377L279.5,181.0667386168114L286,184.9897799532732L292.5,190.46829015088747L299,196.46790287458276L305.5,202.21149052176236L312,208.4330277008951L318.5,216.48663107341503L325,226.6447550424979L331.5,238.14099538735346L338,250.39910067660512L344.5,263.4517939474478L351,277.279856788506L357.50000000000006,291.30154123777646L364.00000000000006,304.6711827688907L370.49999999999994,316.8650638501475L377,327.92626284939814L383.5,338.1996999039961L390,347.8237479552563L396.5,356.6297938336622L403,364.59610548563853L409.5,372.12841994082106L416,379.7567453351799L422.5,387.73061354593483L429,395.9859523291157L435.5,404.3308166580225L442.00000000000006,412.5667146295636L448.49999999999994,420.52113026107764L454.99999999999994,428.0293266426292L461.5,434.89190563244347L468,440.93636046623305L474.5,446.1624558144438L481,450.70691314222904L487.5,454.6667474861139L494,458.09176784457037L500.5,461.07629366278763L507,463.7144359490012L513.5,466.0388526725557L520,468.0740280479531L526.5,469.8792009767989L533,471.514020946316L539.5,473.00264862653205L546,474.3355959111735L552.5,475.48768934090583L559,476.43367767041815L565.5,477.15825125855736L572,477.66013076908587L578.5,477.9498626677277L585,478.04908025387886L591.5,478.00791706532374L598,477.9252388992154L604.5,477.91071344452433L611,478.004756760237L617.5,478.1729962994383L624,478.3766268884914L630.5,478.60421988428755L637,478.8498035548919L643.5,479.09766494959155L650,479.32794150903203L650,479.3279489019369L643.5,479.097762591668L637,478.8506955068941L630.5,478.60985533362515L624,478.40125313383777L617.5,478.2474267145298L611,478.16034804505534L604.5,478.1356720857128L598,478.15019754040395L591.5,478.163508350142L585,478.1235106689704L578.5,477.9744889130748L572,477.6657662184725L565.5,477.15914321293207L559,476.4337753919734L552.5,475.4876985825549L546,474.33562620519996L539.5,473.0029858355327L533,471.5166784916443L526.5,469.8938996058471L520,468.1313915293334L513.5,466.19815797095305L507,464.0343081962671L500.5,461.5570479530112L494,458.672404130103L487.5,455.2892587817688L481,451.3319008425141L474.5,446.74893969209205L468,441.5190723951408L461.5,435.65594310923495L454.99999999999994,429.21359472599886L448.49999999999994,422.2908371835102L442.00000000000006,415.029282612568L435.5,407.59877892757004L429,400.1673878453693L422.5,392.8601068095625L416,385.71780734314484L409.5,378.6711864989261L403,371.54155580858856L396.5,364.0720220346915L390,355.98280285318333L383.5,347.037301985477L377,337.10347673728006L370.49999999999994,326.19750219899987L364.00000000000006,314.5014926048826L357.50000000000006,302.35190972206345L351,290.1995694007603L344.5,278.54651442965394L338,267.87015197769546L331.5,258.5502583205721L325,250.81729218409848L318.5,244.73792801243803L312,240.24435283224534L305.5,237.19943835479515L299,235.47550926260965L292.5,235.01660891041053L286,235.85773317078602L279.5,238.08977576797025L273,241.7808124644468L266.5,246.8840444548607L260,253.17144160881844L253.5,260.2252318661378L247,267.49885556570393L240.5,274.432899735571L234,280.59046342730255L227.49999999999997,285.7687349072825L221.00000000000003,290.0517131113568L214.5,293.788836925971L208,297.50758794704234L201.5,301.7866401121894L195,307.1247491225435L188.5,313.8384027651667L182.00000000000003,322.0105884449736L175.5,331.4977030336929L169,341.9858170227267L162.5,353.075234073824L156,364.3668839492733L149.5,375.52714288240855L143,386.3179730790454L136.5,396.59274030319756L130,406.2693498964289L123.5,415.29732092973L117,423.6331455099277L110.50000000000001,431.2310793608209L104,438.04832957401794L97.5,444.0578432710579L91.00000000000001,449.2600662578375L84.5,453.6867761522339L78,457.3940530021257L71.5,460.4461439055676L65,462.89609548158455L58.5,464.7713738673767L52,466.0722207640011L45.50000000000001,466.78671780659874L39,466.92011481437083L32.5,466.52901309954063L26,465.74651516378043L19.5,464.78515227376727L13,463.9111015587347L6.5,463.39392369117667L0,463.44644901749314Z" style="fill: #B6DDE8;"></path></g></g><path class="foreground" aria-hidden="true" d="" style="display: none;"></path></g><g transform="translate(0,0)"><path class="background" aria-hidden="true" d="M0,0h650v480h-650Z"></path><g><g class="mark-area role-mark concat_0_marks" role="graphics-symbol" aria-roledescription="area mark container"><path d="M0,463.44644901749314L6.5,463.39392369117667L13,463.9111015587347L19.5,464.78515227376727L26,465.74651516378043L32.5,466.52901309954063L39,466.92011481437083L45.50000000000001,466.78671780659874L52,466.0722207640011L58.5,464.7713738673767L65,462.89609548158455L71.5,460.4461439055676L78,457.3940530021257L84.5,453.6867761522339L91.00000000000001,449.2600662578375L97.5,444.05784327105795L104,438.04832957401794L110.50000000000001,431.2310793608209L117,423.6331455099277L123.5,415.29732092973L130,406.2693498964289L136.5,396.59274030319756L143,386.3179730790454L149.5,375.52714288240855L156,364.3668839492733L162.5,353.075234073824L169,341.9858170227267L175.5,331.4977030336929L182.00000000000003,322.0105884449736L188.5,313.8384027651667L195,307.1247491225435L201.5,301.7866401121894L208,297.50758794704234L214.5,293.788836925971L221.00000000000003,290.0517131113568L227.49999999999997,285.7687349072825L234,280.59046342730255L240.5,274.432899735571L247,267.49885556570393L253.5,260.2252318661378L260,253.17144160881844L266.5,246.8840444548607L273,241.7808124644468L279.5,238.08977576797025L286,235.85773317078602L292.5,235.01660891041053L299,235.47550926260965L305.5,237.19943835479515L312,240.24435283224534L318.5,244.73792801243803L325,250.81729218409848L331.5,258.5502583205721L338,267.87015197769546L344.5,278.54651442965394L351,290.1995694007603L357.50000000000006,302.35190972206345L364.00000000000006,314.5014926048826L370.49999999999994,326.19750219899987L377,337.10347673728006L383.5,347.037301985477L390,355.98280285318333L396.5,364.0720220346915L403,371.54155580858856L409.5,378.6711864989261L416,385.71780734314484L422.5,392.8601068095625L429,400.1673878453693L435.5,407.59877892757004L442.00000000000006,415.029282612568L448.49999999999994,422.2908371835102L454.99999999999994,429.21359472599886L461.5,435.65594310923495L468,441.5190723951408L474.5,446.74893969209205L481,451.3319008425141L487.5,455.2892587817688L494,458.672404130103L500.5,461.5570479530112L507,464.0343081962671L513.5,466.19815797095305L520,468.1313915293334L526.5,469.8938996058471L533,471.5166784916443L539.5,473.0029858355327L546,474.33562620519996L552.5,475.4876985825549L559,476.4337753919734L565.5,477.15914321293207L572,477.6657662184725L578.5,477.9744889130748L585,478.1235106689704L591.5,478.163508350142L598,478.15019754040395L604.5,478.1356720857128L611,478.16034804505534L617.5,478.2474267145298L624,478.40125313383777L630.5,478.60985533362515L637,478.8506955068941L643.5,479.097762591668L650,479.3279489019369L650,480L643.5,480L637,480L630.5,480L624,480L617.5,480L611,480L604.5,480L598,480L591.5,480L585,480L578.5,480L572,480L565.5,480L559,480L552.5,480L546,480L539.5,480L533,480L526.5,480L520,480L513.5,480L507,480L500.5,480L494,480L487.5,480L481,480L474.5,480L468,480L461.5,480L454.99999999999994,480L448.49999999999994,480L442.00000000000006,480L435.5,480L429,480L422.5,480L416,480L409.5,480L403,480L396.5,480L390,480L383.5,480L377,480L370.49999999999994,480L364.00000000000006,480L357.50000000000006,480L351,480L344.5,480L338,480L331.5,480L325,480L318.5,480L312,480L305.5,480L299,480L292.5,480L286,480L279.5,480L273,480L266.5,480L260,480L253.5,480L247,480L240.5,480L234,480L227.49999999999997,480L221.00000000000003,480L214.5,480L208,480L201.5,480L195,480L188.5,480L182.00000000000003,480L175.5,480L169,480L162.5,480L156,480L149.5,480L143,480L136.5,480L130,480L123.5,480L117,480L110.50000000000001,480L104,480L97.5,480L91.00000000000001,480L84.5,480L78,480L71.5,480L65,480L58.5,480L52,480L45.50000000000001,480L39,480L32.5,480L26,480L19.5,480L13,480L6.5,480L0,480Z" style="fill: #C25A5A;"></path></g></g><path class="foreground" aria-hidden="true" d="" style="display: none;"></path></g></g><g class="mark-group role-title"><g transform="translate(325,-29)"><path class="background" aria-hidden="true" d="M0,0h0v0h0Z" style="pointer-events: none;"></path><g><g class="mark-text role-title-text" role="graphics-symbol" aria-roledescription="title" aria-label="Title text 'ICU'" style="pointer-events: none;"><text text-anchor="middle" transform="translate(0,16)" style="font-family: sans-serif; font-size: 20px; font-weight: bold; fill: #000; opacity: 1;">ICU</text></g></g><path class="foreground" aria-hidden="true" d="" style="pointer-events: none; display: none;"></path></g></g></g><path class="foreground" aria-hidden="true" d="" style="display: none;"></path></g></g><g class="mark-group role-scope concat_1_group" role="graphics-object" aria-roledescription="group mark container"><g transform="translate(734,0)"><path class="background" aria-hidden="true" d="M0.5,0.5h650v480h-650Z" style="stroke: #ddd;"></path><g><g class="mark-group role-axis" role="graphics-symbol" aria-roledescription="axis" aria-label="X-axis for a linear scale with values from 0 to 200"><g transform="translate(0.5,480.5)"><path class="background" aria-hidden="true" d="M0,0h0v0h0Z" style="pointer-events: none;"></path><g><g class="mark-rule role-axis-grid" style="pointer-events: none;"><line transform="translate(0,-480)" x2="0" y2="480" style="stroke: #ddd; stroke-width: 1; opacity: 1;"></line><line transform="translate(33,-480)" x2="0" y2="480" style="stroke: #ddd; stroke-width: 1; opacity: 1;"></line><line transform="translate(65,-480)" x2="0" y2="480" style="stroke: #ddd; stroke-width: 1; opacity: 1;"></line><line transform="translate(98,-480)" x2="0" y2="480" style="stroke: #ddd; stroke-width: 1; opacity: 1;"></line><line transform="translate(130,-480)" x2="0" y2="480" style="stroke: #ddd; stroke-width: 1; opacity: 1;"></line><line transform="translate(163,-480)" x2="0" y2="480" style="stroke: #ddd; stroke-width: 1; opacity: 1;"></line><line transform="translate(195,-480)" x2="0" y2="480" style="stroke: #ddd; stroke-width: 1; opacity: 1;"></line><line transform="translate(227,-480)" x2="0" y2="480" style="stroke: #ddd; stroke-width: 1; opacity: 1;"></line><line transform="translate(260,-480)" x2="0" y2="480" style="stroke: #ddd; stroke-width: 1; opacity: 1;"></line><line transform="translate(293,-480)" x2="0" y2="480" style="stroke: #ddd; stroke-width: 1; opacity: 1;"></line><line transform="translate(325,-480)" x2="0" y2="480" style="stroke: #ddd; stroke-width: 1; opacity: 1;"></line><line transform="translate(358,-480)" x2="0" y2="480" style="stroke: #ddd; stroke-width: 1; opacity: 1;"></line><line transform="translate(390,-480)" x2="0" y2="480" style="stroke: #ddd; stroke-width: 1; opacity: 1;"></line><line transform="translate(423,-480)" x2="0" y2="480" style="stroke: #ddd; stroke-width: 1; opacity: 1;"></line><line transform="translate(455,-480)" x2="0" y2="480" style="stroke: #ddd; stroke-width: 1; opacity: 1;"></line><line transform="translate(488,-480)" x2="0" y2="480" style="stroke: #ddd; stroke-width: 1; opacity: 1;"></line><line transform="translate(520,-480)" x2="0" y2="480" style="stroke: #ddd; stroke-width: 1; opacity: 1;"></line><line transform="translate(553,-480)" x2="0" y2="480" style="stroke: #ddd; stroke-width: 1; opacity: 1;"></line><line transform="translate(585,-480)" x2="0" y2="480" style="stroke: #ddd; stroke-width: 1; opacity: 1;"></line><line transform="translate(618,-480)" x2="0" y2="480" style="stroke: #ddd; stroke-width: 1; opacity: 1;"></line><line transform="translate(650,-480)" x2="0" y2="480" style="stroke: #ddd; stroke-width: 1; opacity: 1;"></line></g></g><path class="foreground" aria-hidden="true" d="" style="pointer-events: none; display: none;"></path></g></g><g class="mark-group role-axis" role="graphics-symbol" aria-roledescription="axis" aria-label="Y-axis for a linear scale with values from 0.000 to 0.028"><g transform="translate(0.5,0.5)"><path class="background" aria-hidden="true" d="M0,0h0v0h0Z" style="pointer-events: none;"></path><g><g class="mark-rule role-axis-grid" style="pointer-events: none;"><line transform="translate(0,480)" x2="650" y2="0" style="stroke: #ddd; stroke-width: 1; opacity: 1;"></line><line transform="translate(0,446)" x2="650" y2="0" style="stroke: #ddd; stroke-width: 1; opacity: 1;"></line><line transform="translate(0,411)" x2="650" y2="0" style="stroke: #ddd; stroke-width: 1; opacity: 1;"></line><line transform="translate(0,377)" x2="650" y2="0" style="stroke: #ddd; stroke-width: 1; opacity: 1;"></line><line transform="translate(0,343)" x2="650" y2="0" style="stroke: #ddd; stroke-width: 1; opacity: 1;"></line><line transform="translate(0,309)" x2="650" y2="0" style="stroke: #ddd; stroke-width: 1; opacity: 1;"></line><line transform="translate(0,274)" x2="650" y2="0" style="stroke: #ddd; stroke-width: 1; opacity: 1;"></line><line transform="translate(0,240)" x2="650" y2="0" style="stroke: #ddd; stroke-width: 1; opacity: 1;"></line><line transform="translate(0,206)" x2="650" y2="0" style="stroke: #ddd; stroke-width: 1; opacity: 1;"></line><line transform="translate(0,171)" x2="650" y2="0" style="stroke: #ddd; stroke-width: 1; opacity: 1;"></line><line transform="translate(0,137)" x2="650" y2="0" style="stroke: #ddd; stroke-width: 1; opacity: 1;"></line><line transform="translate(0,103)" x2="650" y2="0" style="stroke: #ddd; stroke-width: 1; opacity: 1;"></line><line transform="translate(0,69)" x2="650" y2="0" style="stroke: #ddd; stroke-width: 1; opacity: 1;"></line><line transform="translate(0,34)" x2="650" y2="0" style="stroke: #ddd; stroke-width: 1; opacity: 1;"></line><line transform="translate(0,0)" x2="650" y2="0" style="stroke: #ddd; stroke-width: 1; opacity: 1;"></line></g></g><path class="foreground" aria-hidden="true" d="" style="pointer-events: none; display: none;"></path></g></g><g class="mark-group role-axis" role="graphics-symbol" aria-roledescription="axis" aria-label="X-axis titled 'Apache Score' for a linear scale with values from 0 to 200"><g transform="translate(0.5,480.5)"><path class="background" aria-hidden="true" d="M0,0h0v0h0Z" style="pointer-events: none;"></path><g><g class="mark-rule role-axis-tick" style="pointer-events: none;"><line transform="translate(0,0)" x2="0" y2="5" style="stroke: #888; stroke-width: 1; opacity: 1;"></line><line transform="translate(33,0)" x2="0" y2="5" style="stroke: #888; stroke-width: 1; opacity: 1;"></line><line transform="translate(65,0)" x2="0" y2="5" style="stroke: #888; stroke-width: 1; opacity: 1;"></line><line transform="translate(98,0)" x2="0" y2="5" style="stroke: #888; stroke-width: 1; opacity: 1;"></line><line transform="translate(130,0)" x2="0" y2="5" style="stroke: #888; stroke-width: 1; opacity: 1;"></line><line transform="translate(163,0)" x2="0" y2="5" style="stroke: #888; stroke-width: 1; opacity: 1;"></line><line transform="translate(195,0)" x2="0" y2="5" style="stroke: #888; stroke-width: 1; opacity: 1;"></line><line transform="translate(227,0)" x2="0" y2="5" style="stroke: #888; stroke-width: 1; opacity: 1;"></line><line transform="translate(260,0)" x2="0" y2="5" style="stroke: #888; stroke-width: 1; opacity: 1;"></line><line transform="translate(293,0)" x2="0" y2="5" style="stroke: #888; stroke-width: 1; opacity: 1;"></line><line transform="translate(325,0)" x2="0" y2="5" style="stroke: #888; stroke-width: 1; opacity: 1;"></line><line transform="translate(358,0)" x2="0" y2="5" style="stroke: #888; stroke-width: 1; opacity: 1;"></line><line transform="translate(390,0)" x2="0" y2="5" style="stroke: #888; stroke-width: 1; opacity: 1;"></line><line transform="translate(423,0)" x2="0" y2="5" style="stroke: #888; stroke-width: 1; opacity: 1;"></line><line transform="translate(455,0)" x2="0" y2="5" style="stroke: #888; stroke-width: 1; opacity: 1;"></line><line transform="translate(488,0)" x2="0" y2="5" style="stroke: #888; stroke-width: 1; opacity: 1;"></line><line transform="translate(520,0)" x2="0" y2="5" style="stroke: #888; stroke-width: 1; opacity: 1;"></line><line transform="translate(553,0)" x2="0" y2="5" style="stroke: #888; stroke-width: 1; opacity: 1;"></line><line transform="translate(585,0)" x2="0" y2="5" style="stroke: #888; stroke-width: 1; opacity: 1;"></line><line transform="translate(618,0)" x2="0" y2="5" style="stroke: #888; stroke-width: 1; opacity: 1;"></line><line transform="translate(650,0)" x2="0" y2="5" style="stroke: #888; stroke-width: 1; opacity: 1;"></line></g><g class="mark-text role-axis-label" style="pointer-events: none;"><text text-anchor="middle" transform="translate(0,15)" style="font-family: sans-serif; font-size: 10px; fill: #000; opacity: 1;">0</text><text text-anchor="middle" transform="translate(32.5,15)" style="font-family: sans-serif; font-size: 10px; fill: #000; opacity: 1;">10</text><text text-anchor="middle" transform="translate(65,15)" style="font-family: sans-serif; font-size: 10px; fill: #000; opacity: 1;">20</text><text text-anchor="middle" transform="translate(97.5,15)" style="font-family: sans-serif; font-size: 10px; fill: #000; opacity: 1;">30</text><text text-anchor="middle" transform="translate(130,15)" style="font-family: sans-serif; font-size: 10px; fill: #000; opacity: 1;">40</text><text text-anchor="middle" transform="translate(162.5,15)" style="font-family: sans-serif; font-size: 10px; fill: #000; opacity: 1;">50</text><text text-anchor="middle" transform="translate(195,15)" style="font-family: sans-serif; font-size: 10px; fill: #000; opacity: 1;">60</text><text text-anchor="middle" transform="translate(227.49999999999997,15)" style="font-family: sans-serif; font-size: 10px; fill: #000; opacity: 1;">70</text><text text-anchor="middle" transform="translate(260,15)" style="font-family: sans-serif; font-size: 10px; fill: #000; opacity: 1;">80</text><text text-anchor="middle" transform="translate(292.5,15)" style="font-family: sans-serif; font-size: 10px; fill: #000; opacity: 1;">90</text><text text-anchor="middle" transform="translate(325,15)" style="font-family: sans-serif; font-size: 10px; fill: #000; opacity: 1;">100</text><text text-anchor="middle" transform="translate(357.50000000000006,15)" style="font-family: sans-serif; font-size: 10px; fill: #000; opacity: 1;">110</text><text text-anchor="middle" transform="translate(390,15)" style="font-family: sans-serif; font-size: 10px; fill: #000; opacity: 1;">120</text><text text-anchor="middle" transform="translate(422.5,15)" style="font-family: sans-serif; font-size: 10px; fill: #000; opacity: 1;">130</text><text text-anchor="middle" transform="translate(454.99999999999994,15)" style="font-family: sans-serif; font-size: 10px; fill: #000; opacity: 1;">140</text><text text-anchor="middle" transform="translate(487.5,15)" style="font-family: sans-serif; font-size: 10px; fill: #000; opacity: 1;">150</text><text text-anchor="middle" transform="translate(520,15)" style="font-family: sans-serif; font-size: 10px; fill: #000; opacity: 1;">160</text><text text-anchor="middle" transform="translate(552.5,15)" style="font-family: sans-serif; font-size: 10px; fill: #000; opacity: 1;">170</text><text text-anchor="middle" transform="translate(585,15)" style="font-family: sans-serif; font-size: 10px; fill: #000; opacity: 1;">180</text><text text-anchor="middle" transform="translate(617.5,15)" style="font-family: sans-serif; font-size: 10px; fill: #000; opacity: 1;">190</text><text text-anchor="middle" transform="translate(650,15)" style="font-family: sans-serif; font-size: 10px; fill: #000; opacity: 1;">200</text></g><g class="mark-rule role-axis-domain" style="pointer-events: none;"><line transform="translate(0,0)" x2="650" y2="0" style="stroke: #888; stroke-width: 1; opacity: 1;"></line></g><g class="mark-text role-axis-title" style="pointer-events: none;"><text text-anchor="middle" transform="translate(325,34)" style="font-family: sans-serif; font-size: 16px; font-weight: bold; fill: #000; opacity: 1;">Apache Score</text></g></g><path class="foreground" aria-hidden="true" d="" style="pointer-events: none; display: none;"></path></g></g><g class="mark-group role-axis" role="graphics-symbol" aria-roledescription="axis" aria-label="Y-axis titled 'density' for a linear scale with values from 0.000 to 0.028"><g transform="translate(0.5,0.5)"><path class="background" aria-hidden="true" d="M0,0h0v0h0Z" style="pointer-events: none;"></path><g><g class="mark-rule role-axis-tick" style="pointer-events: none;"><line transform="translate(0,480)" x2="-5" y2="0" style="stroke: #888; stroke-width: 1; opacity: 1;"></line><line transform="translate(0,446)" x2="-5" y2="0" style="stroke: #888; stroke-width: 1; opacity: 1;"></line><line transform="translate(0,411)" x2="-5" y2="0" style="stroke: #888; stroke-width: 1; opacity: 1;"></line><line transform="translate(0,377)" x2="-5" y2="0" style="stroke: #888; stroke-width: 1; opacity: 1;"></line><line transform="translate(0,343)" x2="-5" y2="0" style="stroke: #888; stroke-width: 1; opacity: 1;"></line><line transform="translate(0,309)" x2="-5" y2="0" style="stroke: #888; stroke-width: 1; opacity: 1;"></line><line transform="translate(0,274)" x2="-5" y2="0" style="stroke: #888; stroke-width: 1; opacity: 1;"></line><line transform="translate(0,240)" x2="-5" y2="0" style="stroke: #888; stroke-width: 1; opacity: 1;"></line><line transform="translate(0,206)" x2="-5" y2="0" style="stroke: #888; stroke-width: 1; opacity: 1;"></line><line transform="translate(0,171)" x2="-5" y2="0" style="stroke: #888; stroke-width: 1; opacity: 1;"></line><line transform="translate(0,137)" x2="-5" y2="0" style="stroke: #888; stroke-width: 1; opacity: 1;"></line><line transform="translate(0,103)" x2="-5" y2="0" style="stroke: #888; stroke-width: 1; opacity: 1;"></line><line transform="translate(0,69)" x2="-5" y2="0" style="stroke: #888; stroke-width: 1; opacity: 1;"></line><line transform="translate(0,34)" x2="-5" y2="0" style="stroke: #888; stroke-width: 1; opacity: 1;"></line><line transform="translate(0,0)" x2="-5" y2="0" style="stroke: #888; stroke-width: 1; opacity: 1;"></line></g><g class="mark-text role-axis-label" style="pointer-events: none;"><text text-anchor="end" transform="translate(-7,483)" style="font-family: sans-serif; font-size: 10px; fill: #000; opacity: 1;">0.000</text><text text-anchor="end" transform="translate(-7,448.7142857142857)" style="font-family: sans-serif; font-size: 10px; fill: #000; opacity: 1;">0.002</text><text text-anchor="end" transform="translate(-7,414.42857142857144)" style="font-family: sans-serif; font-size: 10px; fill: #000; opacity: 1;">0.004</text><text text-anchor="end" transform="translate(-7,380.1428571428571)" style="font-family: sans-serif; font-size: 10px; fill: #000; opacity: 1;">0.006</text><text text-anchor="end" transform="translate(-7,345.8571428571429)" style="font-family: sans-serif; font-size: 10px; fill: #000; opacity: 1;">0.008</text><text text-anchor="end" transform="translate(-7,311.57142857142856)" style="font-family: sans-serif; font-size: 10px; fill: #000; opacity: 1;">0.010</text><text text-anchor="end" transform="translate(-7,277.2857142857143)" style="font-family: sans-serif; font-size: 10px; fill: #000; opacity: 1;">0.012</text><text text-anchor="end" transform="translate(-7,243)" style="font-family: sans-serif; font-size: 10px; fill: #000; opacity: 1;">0.014</text><text text-anchor="end" transform="translate(-7,208.71428571428572)" style="font-family: sans-serif; font-size: 10px; fill: #000; opacity: 1;">0.016</text><text text-anchor="end" transform="translate(-7,174.42857142857144)" style="font-family: sans-serif; font-size: 10px; fill: #000; opacity: 1;">0.018</text><text text-anchor="end" transform="translate(-7,140.14285714285714)" style="font-family: sans-serif; font-size: 10px; fill: #000; opacity: 1;">0.020</text><text text-anchor="end" transform="translate(-7,105.85714285714286)" style="font-family: sans-serif; font-size: 10px; fill: #000; opacity: 1;">0.022</text><text text-anchor="end" transform="translate(-7,71.5714285714286)" style="font-family: sans-serif; font-size: 10px; fill: #000; opacity: 1;">0.024</text><text text-anchor="end" transform="translate(-7,37.28571428571432)" style="font-family: sans-serif; font-size: 10px; fill: #000; opacity: 1;">0.026</text><text text-anchor="end" transform="translate(-7,3)" style="font-family: sans-serif; font-size: 10px; fill: #000; opacity: 1;">0.028</text></g><g class="mark-rule role-axis-domain" style="pointer-events: none;"><line transform="translate(0,480)" x2="0" y2="-480" style="stroke: #888; stroke-width: 1; opacity: 1;"></line></g><g class="mark-text role-axis-title" style="pointer-events: none;"><text text-anchor="middle" transform="translate(-36.0244140625,240) rotate(-90) translate(0,-3)" style="font-family: sans-serif; font-size: 16px; font-weight: bold; fill: #000; opacity: 1;">density</text></g></g><path class="foreground" aria-hidden="true" d="" style="pointer-events: none; display: none;"></path></g></g><g class="mark-group role-scope concat_1_pathgroup" role="graphics-object" aria-roledescription="group mark container"><g transform="translate(0,0)"><path class="background" aria-hidden="true" d="M0,0h650v480h-650Z"></path><g><g class="mark-area role-mark concat_1_marks" role="graphics-symbol" aria-roledescription="area mark container"><path d="M0,448.17700986503485L6.5,449.84278458371944L13,453.792804724272L19.5,454.11115899896333L26,447.3874289681036L32.5,432.4434797865119L39,409.05957169773376L45.50000000000001,378.0833314926475L52,340.86187902577785L58.5,298.27203689445986L65,251.80107487108637L71.5,204.68664098666656L78,160.2739224826092L84.5,120.37804485995822L91.00000000000001,85.73799734669043L97.5,57.011472325916245L104,35.31691607753855L110.50000000000001,21.709655224505227L117,15.583073701387455L123.5,14.529689980009053L130,16.482744763164803L136.5,20.379589723163036L143,24.7627263086512L149.5,28.72004884110213L156,33.84794173261996L162.5,42.10512868096623L169,52.63273949833261L175.5,62.703650864713L182.00000000000003,70.84520367082152L188.5,78.36051936647868L195,87.57433664288796L201.5,98.55645867057468L208,109.28680479597269L214.5,118.93220656179614L221.00000000000003,128.73894020287977L227.49999999999997,140.1082767668083L234,153.09483005614325L240.5,166.4083295423804L247,178.45789898115862L253.5,188.47970350708505L260,196.78424721361745L266.5,204.18753560531908L273,211.5890770316055L279.5,219.8478005664576L286,229.35053241748443L292.5,239.5776706563272L299,249.4176270373109L305.5,258.36190031914003L312,267.29795621036453L318.5,277.46472810009766L325,288.9843699747139L331.5,301.05873737368705L338,313.08997986209056L344.5,325.05327913436406L351,336.99072027645855L357.50000000000006,348.5358597957402L364.00000000000006,359.0059235611158L370.49999999999994,367.85791443167045L377,375.13453182207894L383.5,381.4926266363332L390,387.58893607439586L396.5,393.53009795316797L403,399.15994952653733L409.5,404.6293506279233L416,410.3604063277672L422.5,416.6066992189507L429,423.25668292781165L435.5,429.96554664348275L442.00000000000006,436.38701881424413L448.49999999999994,442.2958110949254L454.99999999999994,447.5726688282395L461.5,452.166716634211L468,456.08521930172054L474.5,459.3933343176451L481,462.1794352016762L487.5,464.5361834793689L494,466.59283923791963L500.5,468.4833980947832L507,470.2434934337853L513.5,471.8147775330456L520,473.1619493511739L526.5,474.31866948686644L533,475.3340017035572L539.5,476.22812792142685L546,476.99303883382674L552.5,477.6085672448335L559,478.0556104844586L565.5,478.32543754277054L572,478.4262171843514L578.5,478.3863442384915L585,478.2533747889094L591.5,478.0877330885556L598,477.95178361967044L604.5,477.89684243224315L611,477.9521371999944L617.5,478.11957163648185L624,478.37616674932343L630.5,478.683086797199L637,478.9976960816827L643.5,479.2843425003447L650,479.52073137385L650,479.52073137385L643.5,479.2843425003447L637,478.9976960816827L630.5,478.683086797199L624,478.37616674932343L617.5,478.11957163648185L611,477.9521371999944L604.5,477.89684243224315L598,477.95178361967044L591.5,478.0877330885556L585,478.2533747889094L578.5,478.3863442384917L572,478.4262171843627L565.5,478.32543754347626L559,478.0556105141324L552.5,477.6085680902668L546,476.9930551815384L539.5,476.22834293827526L533,475.3359311905394L526.5,474.3305295335715L520,473.21212974870446L513.5,471.96174108797806L507,470.54310897724736L500.5,468.91062299428023L494,467.02017487093366L487.5,464.83706038765195L481,462.33558535317707L474.5,459.4896544617965L468,456.2602529392099L461.5,452.5902010671732L454.99999999999994,448.4150772341636L448.49999999999994,443.69113847945107L442.00000000000006,438.43010688376506L435.5,432.7232647972116L429,426.73881276901557L422.5,420.68744572882935L416,414.766148256693L409.5,409.1007581156815L403,403.70779575972574L396.5,398.48605430906684L390,393.23549842752095L383.5,387.6933421824686L377,381.57809063307565L370.49999999999994,374.6380712648643L364.00000000000006,366.70414791357643L357.50000000000006,357.74221792172597L351,347.8919839460393L344.5,337.4722951873163L338,326.93788674378806L331.5,316.7891318216307L325,307.4585010216985L318.5,299.21281597931994L312,292.1091291054065L305.5,286.02244549723366L299,280.73360862659604L292.5,276.0393565190629L286,271.83645178328766L279.5,268.1432827317829L273,265.0511880215402L266.5,262.63173776191854L260,260.8497617588223L253.5,259.5327372704489L247,258.42259183276957L240.5,257.29605829671874L234,256.103565788303L227.49999999999997,255.0628449384161L221.00000000000003,254.6595159640423L214.5,255.5450246562774L208,258.36389740914814L201.5,263.5689631861594L195,271.28577032923477L188.5,281.26833651538254L182.00000000000003,292.95732795133074L175.5,305.6196666125256L169,318.5241608113872L162.5,331.09750766985024L156,343.0130007157614L149.5,354.189771626779L143,364.7150635233335L136.5,374.7311602959894L130,384.3381780175122L123.5,393.54948792778595L117,402.3066863279757L110.50000000000001,410.53227378482643L104,418.18474699428015L97.5,425.2866573235237L91.00000000000001,431.9146897052841L84.5,438.16044558133115L78,444.0821253331085L71.5,449.6677163052947L65,454.82255648848104L58.5,459.3840053881472L52,463.158272169033L45.50000000000001,465.97084561943564L39,467.7208141607265L32.5,468.42804047815457L26,468.26005155123516L19.5,467.5253371091608L13,466.62564422490516L6.5,465.9731553313891L0,465.8946270856572Z" style="fill: #B6DDE8;"></path></g></g><path class="foreground" aria-hidden="true" d="" style="display: none;"></path></g><g transform="translate(0,0)"><path class="background" aria-hidden="true" d="M0,0h650v480h-650Z"></path><g><g class="mark-area role-mark concat_1_marks" role="graphics-symbol" aria-roledescription="area mark container"><path d="M0,465.8946270856572L6.5,465.9731553313891L13,466.62564422490516L19.5,467.5253371091608L26,468.26005155123516L32.5,468.42804047815457L39,467.7208141607265L45.50000000000001,465.97084561943564L52,463.158272169033L58.5,459.3840053881472L65,454.82255648848104L71.5,449.6677163052947L78,444.0821253331085L84.5,438.16044558133115L91.00000000000001,431.91468970528405L97.5,425.2866573235237L104,418.18474699428015L110.50000000000001,410.53227378482643L117,402.3066863279757L123.5,393.54948792778595L130,384.3381780175122L136.5,374.7311602959894L143,364.7150635233335L149.5,354.189771626779L156,343.0130007157614L162.5,331.09750766985024L169,318.5241608113872L175.5,305.6196666125256L182.00000000000003,292.95732795133074L188.5,281.26833651538254L195,271.28577032923477L201.5,263.5689631861594L208,258.36389740914814L214.5,255.5450246562774L221.00000000000003,254.6595159640423L227.49999999999997,255.0628449384161L234,256.103565788303L240.5,257.29605829671874L247,258.42259183276957L253.5,259.5327372704489L260,260.8497617588223L266.5,262.63173776191854L273,265.0511880215402L279.5,268.1432827317829L286,271.83645178328766L292.5,276.0393565190629L299,280.73360862659604L305.5,286.02244549723366L312,292.1091291054065L318.5,299.21281597931994L325,307.4585010216985L331.5,316.7891318216307L338,326.93788674378806L344.5,337.4722951873163L351,347.8919839460393L357.50000000000006,357.74221792172597L364.00000000000006,366.70414791357643L370.49999999999994,374.6380712648643L377,381.57809063307565L383.5,387.6933421824686L390,393.23549842752095L396.5,398.48605430906684L403,403.70779575972574L409.5,409.1007581156815L416,414.766148256693L422.5,420.68744572882935L429,426.73881276901557L435.5,432.7232647972116L442.00000000000006,438.43010688376506L448.49999999999994,443.69113847945107L454.99999999999994,448.4150772341636L461.5,452.5902010671732L468,456.2602529392099L474.5,459.4896544617965L481,462.33558535317707L487.5,464.83706038765195L494,467.02017487093366L500.5,468.91062299428023L507,470.54310897724736L513.5,471.96174108797806L520,473.21212974870446L526.5,474.3305295335715L533,475.3359311905394L539.5,476.22834293827526L546,476.9930551815384L552.5,477.6085680902668L559,478.0556105141324L565.5,478.32543754347626L572,478.4262171843627L578.5,478.3863442384917L585,478.2533747889094L591.5,478.0877330885556L598,477.95178361967044L604.5,477.89684243224315L611,477.9521371999944L617.5,478.11957163648185L624,478.37616674932343L630.5,478.683086797199L637,478.9976960816827L643.5,479.2843425003447L650,479.52073137385L650,480L643.5,480L637,480L630.5,480L624,480L617.5,480L611,480L604.5,480L598,480L591.5,480L585,480L578.5,480L572,480L565.5,480L559,480L552.5,480L546,480L539.5,480L533,480L526.5,480L520,480L513.5,480L507,480L500.5,480L494,480L487.5,480L481,480L474.5,480L468,480L461.5,480L454.99999999999994,480L448.49999999999994,480L442.00000000000006,480L435.5,480L429,480L422.5,480L416,480L409.5,480L403,480L396.5,480L390,480L383.5,480L377,480L370.49999999999994,480L364.00000000000006,480L357.50000000000006,480L351,480L344.5,480L338,480L331.5,480L325,480L318.5,480L312,480L305.5,480L299,480L292.5,480L286,480L279.5,480L273,480L266.5,480L260,480L253.5,480L247,480L240.5,480L234,480L227.49999999999997,480L221.00000000000003,480L214.5,480L208,480L201.5,480L195,480L188.5,480L182.00000000000003,480L175.5,480L169,480L162.5,480L156,480L149.5,480L143,480L136.5,480L130,480L123.5,480L117,480L110.50000000000001,480L104,480L97.5,480L91.00000000000001,480L84.5,480L78,480L71.5,480L65,480L58.5,480L52,480L45.50000000000001,480L39,480L32.5,480L26,480L19.5,480L13,480L6.5,480L0,480Z" style="fill: #C25A5A;"></path></g></g><path class="foreground" aria-hidden="true" d="" style="display: none;"></path></g></g><g class="mark-group role-title"><g transform="translate(325,-29)"><path class="background" aria-hidden="true" d="M0,0h0v0h0Z" style="pointer-events: none;"></path><g><g class="mark-text role-title-text" role="graphics-symbol" aria-roledescription="title" aria-label="Title text 'Hospital'" style="pointer-events: none;"><text text-anchor="middle" transform="translate(0,16)" style="font-family: sans-serif; font-size: 20px; font-weight: bold; fill: #000; opacity: 1;">Hospital</text></g></g><path class="foreground" aria-hidden="true" d="" style="pointer-events: none; display: none;"></path></g></g></g><path class="foreground" aria-hidden="true" d="" style="display: none;"></path></g></g><g class="mark-group role-legend" role="graphics-symbol" aria-roledescription="legend" aria-label="Symbol legend titled 'Mortality Status' for fill color with 2 values: Alive, Expired"><g transform="translate(0,536)"><path class="background" aria-hidden="true" d="M0,0h129v36h-129Z" style="pointer-events: none;"></path><g><g class="mark-group role-legend-entry"><g transform="translate(0,20)"><path class="background" aria-hidden="true" d="M0,0h0v0h0Z" style="pointer-events: none;"></path><g><g class="mark-group role-scope" role="graphics-object" aria-roledescription="group mark container"><g transform="translate(0,0.46446609406726225)"><path class="background" aria-hidden="true" d="M0,0h50.3447265625v15.071067811865476h-50.3447265625Z" style="pointer-events: none; opacity: 1;"></path><g><g class="mark-symbol role-legend-symbol" style="pointer-events: none;"><path transform="translate(8,8)" d="M7.0710678118654755,0A7.0710678118654755,7.0710678118654755,0,1,1,-7.0710678118654755,0A7.0710678118654755,7.0710678118654755,0,1,1,7.0710678118654755,0" style="fill: #B6DDE8; stroke-width: 1.5; opacity: 1;"></path></g><g class="mark-text role-legend-label" style="pointer-events: none;"><text text-anchor="start" transform="translate(20,12)" style="font-family: sans-serif; font-size: 14px; fill: #000; opacity: 1;">Alive</text></g></g><path class="foreground" aria-hidden="true" d="" style="pointer-events: none; display: none;"></path></g><g transform="translate(61,0.46446609406726225)"><path class="background" aria-hidden="true" d="M0,0h67.46875v15.071067811865476h-67.46875Z" style="pointer-events: none; opacity: 1;"></path><g><g class="mark-symbol role-legend-symbol" style="pointer-events: none;"><path transform="translate(8,8)" d="M7.0710678118654755,0A7.0710678118654755,7.0710678118654755,0,1,1,-7.0710678118654755,0A7.0710678118654755,7.0710678118654755,0,1,1,7.0710678118654755,0" style="fill: #C25A5A; stroke-width: 1.5; opacity: 1;"></path></g><g class="mark-text role-legend-label" style="pointer-events: none;"><text text-anchor="start" transform="translate(20,12)" style="font-family: sans-serif; font-size: 14px; fill: #000; opacity: 1;">Expired</text></g></g><path class="foreground" aria-hidden="true" d="" style="pointer-events: none; display: none;"></path></g></g></g><path class="foreground" aria-hidden="true" d="" style="pointer-events: none; display: none;"></path></g></g><g class="mark-text role-legend-title" style="pointer-events: none;"><text text-anchor="start" transform="translate(0,12)" style="font-family: sans-serif; font-size: 15px; font-weight: bold; fill: #000; opacity: 1;">Mortality Status</text></g></g><path class="foreground" aria-hidden="true" d="" style="pointer-events: none; display: none;"></path></g></g><g class="mark-group role-title"><g transform="translate(-53.0244140625,-54)"><path class="background" aria-hidden="true" d="M0,0h0v0h0Z" style="pointer-events: none;"></path><g><g class="mark-text role-title-text" role="graphics-symbol" aria-roledescription="title" aria-label="Title text 'Kernal Density Plots: Apache Score'" style="pointer-events: none;"><text text-anchor="start" transform="translate(0,16)" style="font-family: sans-serif; font-size: 20px; font-weight: bold; fill: #000; opacity: 1;">Kernal Density Plots: Apache Score</text></g></g><path class="foreground" aria-hidden="true" d="" style="pointer-events: none; display: none;"></path></g></g></g><path class="foreground" aria-hidden="true" d="" style="display: none;"></path></g></g></g></svg>